Coordinates
version=1
nRows=17
nColumns=40
inDegrees=yes

Units are S.I. units (second, meters, Newtons, ...)
If the header above contains a line with 'inDegrees', this indicates whether rotational values are in degrees (yes) or radians (no).

endheader
time	pelvis_tilt	pelvis_list	pelvis_rotation	pelvis_tx	pelvis_ty	pelvis_tz	hip_flexion_r	hip_adduction_r	hip_rotation_r	knee_angle_r	knee_angle_r_beta	ankle_angle_r	subtalar_angle_r	mtp_angle_r	hip_flexion_l	hip_adduction_l	hip_rotation_l	knee_angle_l	knee_angle_l_beta	ankle_angle_l	subtalar_angle_l	mtp_angle_l	lumbar_extension	lumbar_bending	lumbar_rotation	arm_flex_r	arm_add_r	arm_rot_r	elbow_flex_r	pro_sup_r	wrist_flex_r	wrist_dev_r	arm_flex_l	arm_add_l	arm_rot_l	elbow_flex_l	pro_sup_l	wrist_flex_l	wrist_dev_l
      3.99000000	    -23.95571388	      6.40332600	     -3.85179365	     -0.33596344	      0.88432807	     -1.06707068	     22.67975679	     -7.58125911	      8.21375680	     80.89555197	      1.41189373	      6.75285708	      0.00000000	      0.00000000	     58.41733764	      5.48573547	     -5.25841706	     63.48886516	      1.10808974	     17.33515508	      0.00000000	      0.00000000	      0.37218419	    -12.18131326	      9.04569194	     89.96153125	    -13.97835362	     21.28501227	     50.57730001	     15.32259408	      0.00000000	      0.00000000	     89.95525149	    -25.69654006	     15.07029677	     57.69907575	     17.57652098	      0.00000000	      0.00000000
      3.99500000	    -23.85775438	      6.40781279	     -3.98597993	     -0.33543508	      0.88582179	     -1.06690605	     22.59372726	     -7.61869549	      8.17650186	     80.74040053	      1.40918583	      6.68415186	      0.00000000	      0.00000000	     58.12083105	      5.40864257	     -5.31246689	     63.20533584	      1.10314122	     17.26316144	      0.00000000	      0.00000000	      0.32091075	    -12.15366085	      9.04008467	     89.96147329	    -14.46785062	     19.68742095	     47.31287817	     67.58052068	      0.00000000	      0.00000000	     89.95478944	    -26.64925134	     12.51611142	     54.36789953	     84.51480704	      0.00000000	      0.00000000
      4.00000000	    -23.73207385	      6.29605277	     -4.00132501	     -0.33521678	      0.88719745	     -1.06675511	     22.43640850	     -7.52427984	      8.03522338	     80.61408927	      1.40698128	      6.65533870	      0.00000000	      0.00000000	     57.83328748	      5.31901787	     -5.24376619	     62.92794393	      1.09829981	     17.12874974	      0.00000000	      0.00000000	      0.23298140	    -12.07738458	      9.03612835	     89.96078401	    -14.72141143	     20.07033600	     47.13044081	     67.74265365	      0.00000000	      0.00000000	     89.95385874	    -26.90276506	     12.87924617	     54.35930533	     84.48799192	      0.00000000	      0.00000000
      4.00500000	    -23.58311030	      6.23143222	     -4.09405761	     -0.33496748	      0.88869244	     -1.06634229	     22.30604075	     -7.44757010	      7.93777538	     80.51214617	      1.40520204	      6.65317915	      0.00000000	      0.00000000	     57.49699027	      5.20223725	     -5.22841861	     62.62078681	      1.09293891	     16.99025178	      0.00000000	      0.00000000	      0.11046357	    -12.05508369	      9.07245370	     89.95994157	    -14.95613598	     20.55866997	     47.00484818	     67.93073759	      0.00000000	      0.00000000	     89.95305470	    -27.25507192	     13.28909442	     54.36499853	     84.48938302	      0.00000000	      0.00000000
      4.01000000	    -23.40769487	      6.22080199	     -4.13680691	     -0.33457197	      0.89014341	     -1.06617206	     22.12281262	     -7.51998980	      7.74053381	     80.40809817	      1.40338606	      6.62896741	      0.00000000	      0.00000000	     57.13732288	      5.17425352	     -5.23853541	     62.31614388	      1.08762189	     16.84848909	      0.00000000	      0.00000000	     -0.01511197	    -12.07844210	      9.09412719	     89.95913891	    -15.28115494	     21.21022077	     46.81848016	     68.14958358	      0.00000000	      0.00000000	     89.95203090	    -27.65739370	     13.88621229	     54.37854725	     84.52499564	      0.00000000	      0.00000000
      4.01500000	    -23.23898511	      6.14062012	     -4.18583938	     -0.33422306	      0.89150397	     -1.06581114	     21.90036157	     -7.40264457	      7.69510770	     80.26214373	      1.40083867	      6.60208281	      0.00000000	      0.00000000	     56.83609875	      5.06654834	     -5.22725807	     62.14218789	      1.08458578	     16.71495945	      0.00000000	      0.00000000	     -0.14815234	    -12.04629128	      9.01744612	     89.95828436	    -15.61452999	     22.04524229	     46.82155533	     68.52477466	      0.00000000	      0.00000000	     89.95117350	    -28.18615582	     14.52913685	     54.46250326	     84.57776762	      0.00000000	      0.00000000
      4.02000000	    -23.04417530	      6.14681202	     -4.19751159	     -0.33389310	      0.89308223	     -1.06570670	     21.70206461	     -7.47736917	      7.52508405	     80.14957023	      1.39887389	      6.58825915	      0.00000000	      0.00000000	     56.45153973	      5.08619851	     -5.23964841	     61.80141379	      1.07863815	     16.55393297	      0.00000000	      0.00000000	     -0.33059516	    -12.09845157	      8.97597038	     89.95721186	    -15.95858352	     22.71717109	     46.70483812	     68.90538744	      0.00000000	      0.00000000	     89.95016785	    -28.61026282	     15.12559033	     54.54563852	     84.64521604	      0.00000000	      0.00000000
      4.02500000	    -22.81898159	      6.07516577	     -4.27458906	     -0.33346677	      0.89457939	     -1.06549822	     21.45477173	     -7.47187986	      7.35661356	     80.01532037	      1.39653079	      6.53731270	      0.00000000	      0.00000000	     56.05926353	      5.01976909	     -5.16203935	     61.58885015	      1.07492822	     16.55120986	      0.00000000	      0.00000000	     -0.53953680	    -12.05754877	      8.92497769	     89.95628737	    -16.26217812	     23.47278714	     46.72285666	     69.47899522	      0.00000000	      0.00000000	     89.94893403	    -29.14945281	     15.77351180	     54.64306986	     84.73819619	      0.00000000	      0.00000000
      4.03000000	    -22.63983666	      6.04219171	     -4.28606834	     -0.33312312	      0.89605959	     -1.06534624	     21.25239956	     -7.48034582	      7.22741000	     79.88856103	      1.39431842	      6.49059387	      0.00000000	      0.00000000	     55.68972939	      4.98996268	     -5.18297221	     61.24487708	      1.06892475	     16.34983350	      0.00000000	      0.00000000	     -0.69211914	    -12.06214293	      8.89894851	     89.95508292	    -16.57916093	     24.08813969	     46.57488440	     69.92879681	      0.00000000	      0.00000000	     89.94767225	    -29.54010425	     16.34523042	     54.63262711	     84.82541707	      0.00000000	      0.00000000
      4.03500000	    -22.51080554	      5.97543584	     -4.39327790	     -0.33298357	      0.89742544	     -1.06496382	     21.18615464	     -7.43994837	      7.09335282	     79.91380241	      1.39475897	      6.43458910	      0.00000000	      0.00000000	     55.40792808	      4.84084629	     -5.19738639	     60.98059226	      1.06431211	     16.23097691	      0.00000000	      0.00000000	     -0.80110453	    -12.04068589	      8.94156683	     89.95381231	    -16.78969587	     24.47568957	     46.47380814	     70.16181283	      0.00000000	      0.00000000	     89.94610038	    -29.85633713	     16.61612546	     54.66403574	     84.87175328	      0.00000000	      0.00000000
      4.04000000	    -22.25340348	      6.03393681	     -4.43935756	     -0.33241540	      0.89892160	     -1.06483671	     20.89773057	     -7.57013202	      6.97378543	     79.75506959	      1.39198856	      6.33061330	      0.00000000	      0.00000000	     54.97631346	      4.87217272	     -5.29503798	     60.72694137	      1.05988507	     16.03365012	      0.00000000	      0.00000000	     -1.01891216	    -12.15034584	      8.85017040	     89.95274713	    -17.19765394	     25.63838222	     46.44880179	     70.97546291	      0.00000000	      0.00000000	     89.94497608	    -30.52372070	     17.62601059	     54.79222264	     85.04029021	      0.00000000	      0.00000000
      4.04500000	    -22.09646464	      5.92082354	     -4.45154212	     -0.33206732	      0.90039386	     -1.06447590	     20.70196395	     -7.47334626	      6.80149863	     79.63713034	      1.38993013	      6.27160901	      0.00000000	      0.00000000	     54.62683494	      4.76612824	     -5.24598365	     60.45511496	      1.05514081	     16.04230563	      0.00000000	      0.00000000	     -1.17320735	    -12.11528937	      8.76677127	     89.95131005	    -17.56688617	     25.23070943	     46.19154928	     82.97487700	      0.00000000	      0.00000000	     89.94348339	    -30.97669808	     18.19719472	     54.91159065	     85.43774695	      0.00000000	      0.00000000
      4.05000000	    -21.87684617	      5.88109525	     -4.48413076	     -0.33177432	      0.90192333	     -1.06424969	     20.48368630	     -7.48410935	      6.64126808	     79.57096827	      1.38877539	      6.21150204	      0.00000000	      0.00000000	     54.20831107	      4.70820818	     -5.26817776	     60.10232770	      1.04898351	     15.79934810	      0.00000000	      0.00000000	     -1.37760038	    -12.11920192	      8.72418494	     89.94987829	    -17.81639603	     25.94265283	     46.10108148	     83.09829843	      0.00000000	      0.00000000	     89.94196677	    -31.38104369	     18.69580245	     54.89632749	     85.46774444	      0.00000000	      0.00000000
      4.05500000	    -21.68840291	      5.82980446	     -4.50491044	     -0.33137972	      0.90325219	     -1.06401778	     20.28408889	     -7.49671447	      6.44383630	     79.50343014	      1.38759662	      6.14314378	      0.00000000	      0.00000000	     53.87340720	      4.66973901	     -5.24635440	     59.91822581	      1.04577032	     15.77610291	      0.00000000	      0.00000000	     -1.55499146	    -12.12076242	      8.59982648	     89.94834056	    -18.15168794	     26.99354227	     46.17569619	     83.35862711	      0.00000000	      0.00000000	     89.94014082	    -31.99201766	     19.48969898	     55.04136117	     85.53897494	      0.00000000	      0.00000000
      4.06000000	    -21.50100879	      5.77919258	     -4.56642982	     -0.33123111	      0.90473600	     -1.06373684	     20.16553289	     -7.49260268	      6.28403171	     79.53286562	      1.38811037	      6.07824775	      0.00000000	      0.00000000	     53.49566027	      4.58267650	     -5.25938851	     59.57254921	      1.03973713	     15.61907962	      0.00000000	      0.00000000	     -1.74174117	    -12.11275077	      8.57970479	     89.94635260	    -18.35367092	     27.53179550	     46.10659392	     83.48866874	      0.00000000	      0.00000000	     89.93802684	    -32.33839157	     19.91866394	     54.97374105	     85.58435925	      0.00000000	      0.00000000
      4.06500000	    -21.23106673	      5.75211537	     -4.55585139	     -0.33071405	      0.90627973	     -1.06363605	     19.81810508	     -7.54993376	      6.10111199	     79.33188510	      1.38460260	      6.01973705	      0.00000000	      0.00000000	     53.06251246	      4.60769288	     -5.23965048	     59.35924941	      1.03601434	     15.51135448	      0.00000000	      0.00000000	     -2.00083782	    -12.14254240	      8.43571264	     89.94462354	    -18.78766008	     28.69541224	     46.18498276	     83.80016576	      0.00000000	      0.00000000	     89.93629576	    -33.02144568	     20.90392785	     55.14580483	     85.69953033	      0.00000000	      0.00000000
      4.07000000	    -21.06617414	      5.75991136	     -4.51060045	     -0.33027407	      0.90767630	     -1.06336909	     19.62480598	     -7.64350096	      5.83792076	     79.25195035	      1.38320747	      6.00366256	      0.00000000	      0.00000000	     52.71092378	      4.64159601	     -5.24345589	     59.04004997	      1.03044326	     15.34703713	      0.00000000	      0.00000000	     -2.16514733	    -12.22682189	      8.28327870	     89.94256727	    -19.14031103	     29.52942597	     46.13405382	     84.00511245	      0.00000000	      0.00000000	     89.93383490	    -33.55455957	     21.64331798	     55.21327899	     85.79213108	      0.00000000	      0.00000000
